<?xml version="1.0" encoding="utf-8"?>
<svg viewBox="0 0 24 24" style="enable-background:new 0 0 512 512" xmlns="http://www.w3.org/2000/svg">
  <g>
    <path xmlns="http://www.w3.org/2000/svg" d="m12 16c-.205 0-.401-.084-.542-.232l-5.25-5.5c-.455-.476-.117-1.268.542-1.268h2.75v-5.75c0-.689.561-1.25 1.25-1.25h2.5c.689 0 1.25.561 1.25 1.25v5.75h2.75c.659 0 .997.792.542 1.268l-5.25 5.5c-.141.148-.337.232-.542.232z" data-original="#000000" class="" style="fill: rgb(240, 185, 11);"/>
    <path xmlns="http://www.w3.org/2000/svg" d="M 19.791 22 L 4.09 22 C 3.351 22 2.75 21.215 2.75 20.25 L 2.75 19.75 C 2.75 18.785 3.351 18 4.09 18 L 19.791 18 C 20.53 18 21.131 18.785 21.131 19.75 L 21.131 20.25 C 21.131 21.215 20.53 22 19.791 22 Z" data-original="#000000" class="" style="fill: rgb(117, 128, 142);"/>
  </g>
</svg>