<?xml version="1.0" encoding="utf-8"?>
<svg viewBox="0 0 512 512" style="enable-background:new 0 0 512 512" xmlns="http://www.w3.org/2000/svg">
  <defs>
    <linearGradient gradientUnits="userSpaceOnUse" x1="256" y1="28.086" x2="256" y2="483.913" id="gradient-0">
      <stop offset="0" style="stop-color: rgb(248, 211, 58);"/>
      <stop offset="1" style="stop-color: rgb(240, 185, 11);"/>
    </linearGradient>
  </defs>
  <g>
    <rect x="83.527" y="119.87" width="368.538" height="190.007" style="stroke: rgb(117, 128, 142); fill: rgb(117, 128, 142);"/>
    <path xmlns="http://www.w3.org/2000/svg" d="m372.7 155.856c-11.199 0-17.799 6.4-17.799 19.999v52.999c0 9.2 2.799 15 8.199 18v-8.8c0-6.6 4.801-9.4 9.6-9.4 4.801 0 9.6 2.8 9.6 9.4v8.8c5.201-3 8.4-8.8 8.4-18v-52.999c0-13.599-6.799-19.999-18-19.999z" data-original="#000000" class="" style="fill: rgb(248, 211, 58);"/>
    <path xmlns="http://www.w3.org/2000/svg" d="m230.903 220.054h29.2l-14.6-53.599z" data-original="#000000" class="" style="fill: rgb(248, 211, 58);"/>
    <path xmlns="http://www.w3.org/2000/svg" d="m397 28.086h-282c-63.411 0-115 51.589-115 115v110c0 58.33 43.648 106.655 100 114.026v101.801c0 6.067 3.654 11.537 9.26 13.858 1.855.769 3.805 1.142 5.737 1.142 3.903 0 7.74-1.524 10.609-4.394l111.434-111.433h159.96c63.411 0 115-51.589 115-115v-110c0-63.411-51.589-115-115-115zm-235.899 161.569c6 0 9.4 5.8 9.4 12.2 0 5.4-2.801 11.8-9.4 11.8h-30.199v51.6c0 6.4-7.801 9.6-15.6 9.6-7.801 0-15.6-3.2-15.6-9.6v-126.999c0-6.4 6.799-9.6 13.6-9.6h69.398c6.6 0 9.4 7 9.4 13.4 0 7.4-3.4 13.8-9.4 13.8h-51.799v33.799zm122.601 85.199c-5 0-9-1.6-10.199-5.8l-6.801-25h-42.199l-6.799 25c-1.201 4.2-5.201 5.8-10.201 5.8-8.6 0-20-5.4-20-12.8 0-.6.201-1.4.4-2.2l37.199-121.998c2.201-7 11.201-10.4 20.4-10.4s18.199 3.4 20.4 10.4l37.398 121.998c.199.8.4 1.6.4 2.2.002 7.4-11.398 12.8-19.998 12.8zm138.197-46c0 30.4-16.799 43.799-39.6 46.6v11.6c0 6.4-4.799 9.6-9.6 9.6-4.799 0-9.6-3.2-9.6-9.6v-11.6c-22.799-2.8-39.398-16.2-39.398-46.6v-52.999c0-34.6 21.398-47.199 48.998-47.199s49.199 12.6 49.199 47.199v52.999z" data-original="#000000" class="" style="fill: url(#gradient-0);"/>
  </g>
</svg>