<svg xmlns="http://www.w3.org/2000/svg" viewBox="0 0 24 24"><path fill-rule="evenodd" clip-rule="evenodd" d="M4.01379 21L20.0005 21C21.1051 21 22.0005 20.1046 22.0005 19V3H6.00048L6.00004 18.8572C6.00004 20.0358 5.11203 20.9921 4.01379 21ZM8.00048 11.0005H13.0005V17.0005H8.00048V11.0005ZM20.0005 11.0005H15.0005V13.0005H20.0005V11.0005ZM15.0005 15.0005H20.0005V17.0005H15.0005V15.0005Z" fill="url(#paint0_linear_7_31)"></path><path d="M18.0004 8.00049L10.0004 8.00049V6.00049H18.0004V8.00049Z" fill="#76808F"></path><path d="M2 18.8572V9.00005L6 9.00005L6 18.8572C6 20.0407 5.10457 21 4 21C2.89543 21 2 20.0407 2 18.8572Z" fill="#76808F"></path><defs><linearGradient id="paint0_linear_7_31" x1="16.5004" y1="13.5" x2="16.5004" y2="2" gradientUnits="userSpaceOnUse"><stop stop-color="#F0B90B"></stop><stop offset="1" stop-color="#F8D33A"></stop></linearGradient></defs></svg>