<?xml version="1.0" encoding="utf-8"?>
<svg viewBox="0 0 24 24" style="enable-background:new 0 0 512 512" xmlns="http://www.w3.org/2000/svg">
  <g>
    <path xmlns="http://www.w3.org/2000/svg" d="M 12 16 C 11.795 16 11.599 15.916 11.458 15.768 L 6.208 10.268 C 5.753 9.792 6.091 9 6.75 9 L 9.5 9 L 9.5 3.25 C 9.5 2.561 10.061 2 10.75 2 L 13.25 2 C 13.939 2 14.5 2.561 14.5 3.25 L 14.5 9 L 17.25 9 C 17.909 9 18.247 9.792 17.792 10.268 L 12.542 15.768 C 12.401 15.916 12.205 16 12 16 Z" data-original="#000000" class="" style="fill: rgb(240, 185, 11);" transform="matrix(-1, 0, 0, -1, 24, 18)"/>
    <path xmlns="http://www.w3.org/2000/svg" d="M 19.791 22 L 4.09 22 C 3.351 22 2.75 21.215 2.75 20.25 L 2.75 19.75 C 2.75 18.785 3.351 18 4.09 18 L 19.791 18 C 20.53 18 21.131 18.785 21.131 19.75 L 21.131 20.25 C 21.131 21.215 20.53 22 19.791 22 Z" data-original="#000000" class="" style="fill: rgb(117, 128, 142);"/>
  </g>
</svg>