<?xml version="1.0" encoding="utf-8"?>
<svg viewBox="0 0 547.596 547.596" style="enable-background:new 0 0 512 512" xmlns="http://www.w3.org/2000/svg">
  <g>
    <g xmlns="http://www.w3.org/2000/svg">
      <path d="M540.76,254.788L294.506,38.216c-11.475-10.098-30.064-10.098-41.386,0L6.943,254.788   c-11.475,10.098-8.415,18.284,6.885,18.284h75.964v221.773c0,12.087,9.945,22.108,22.108,22.108h92.947V371.067   c0-12.087,9.945-22.108,22.109-22.108h93.865c12.239,0,22.108,9.792,22.108,22.108v145.886h92.947   c12.24,0,22.108-9.945,22.108-22.108v-221.85h75.965C549.021,272.995,552.081,264.886,540.76,254.788z" data-original="#000000" class="" style="fill: rgb(174, 180, 188);"/>
    </g>
  </g>
  <rect x="201.854" y="348.106" width="147.299" height="169.121" style="stroke: rgb(0, 0, 0); fill: rgb(112, 122, 138); fill-rule: nonzero; paint-order: stroke; stroke-width: 0px;"/>
</svg>