<?xml version="1.0" encoding="utf-8"?>
<svg viewBox="0 0 32 32" style="enable-background:new 0 0 512 512" xmlns="http://www.w3.org/2000/svg">
  <g>
    <path xmlns="http://www.w3.org/2000/svg" d="M 29.79 12.105 L 24.245 6.561 C 24.079 6.395 23.83 6.347 23.615 6.435 C 23.399 6.525 23.258 6.736 23.258 6.97 L 23.258 9.368 L 11.78 9.368 C 11.461 9.368 11.202 9.627 11.202 9.946 L 11.202 15.082 C 11.202 15.401 11.461 15.661 11.78 15.661 L 23.258 15.661 L 23.258 18.059 C 23.258 18.293 23.399 18.503 23.615 18.593 C 23.687 18.623 23.762 18.637 23.836 18.637 C 23.986 18.637 24.134 18.578 24.245 18.468 L 29.79 12.923 C 30.016 12.697 30.016 12.332 29.79 12.105 Z" data-original="#000000" class="" style="fill: rgb(112, 122, 138);"/>
    <path xmlns="http://www.w3.org/2000/svg" d="M 7.747 14.871 C 7.532 14.783 7.283 14.831 7.117 14.997 L 1.573 20.541 C 1.347 20.767 1.347 21.133 1.573 21.359 L 7.117 26.903 C 7.229 27.015 7.376 27.074 7.526 27.074 C 7.601 27.074 7.675 27.059 7.747 27.029 C 7.964 26.94 8.104 26.729 8.104 26.496 L 8.104 24.096 L 19.582 24.096 C 19.902 24.096 20.161 23.838 20.161 23.518 L 20.161 18.383 C 20.161 18.064 19.902 17.805 19.582 17.805 L 8.104 17.805 L 8.104 15.405 C 8.104 15.171 7.964 14.96 7.747 14.871 Z" data-original="#000000" class="" style="fill: rgb(174, 180, 188);"/>
  </g>
</svg>