<?xml version="1.0" encoding="utf-8"?>
<svg viewBox="0 0 128 128" style="enable-background:new 0 0 512 512" xmlns="http://www.w3.org/2000/svg">
  <g>
    <g xmlns="http://www.w3.org/2000/svg">
      <g>
        <path d="M 105.47 62.37 C 105.01 62.07 104.39 62.2 104.08 62.66 C 98.92 70.56 90.2 75.27 80.77 75.27 C 79.57 75.27 78.36 75.17 77.16 75.02 C 76.82 73.1 76.3 71.23 75.61 69.45 C 77.3 69.85 79.02 70.06 80.77 70.06 C 93.25 70.06 103.41 59.91 103.41 47.43 C 103.41 34.95 93.25 24.8 80.77 24.8 C 68.29 24.8 58.14 34.95 58.14 47.43 C 58.14 49.15 58.34 50.83 58.72 52.46 C 56.94 51.76 55.08 51.22 53.16 50.87 C 53.02 49.73 52.93 48.58 52.93 47.43 C 52.93 32.08 65.42 19.59 80.77 19.59 C 88.22 19.59 95.21 22.48 100.46 27.74 C 100.85 28.13 101.49 28.13 101.88 27.74 C 102.27 27.35 102.27 26.71 101.88 26.32 C 96.25 20.69 88.75 17.59 80.77 17.59 C 64.32 17.59 50.93 30.98 50.93 47.43 C 50.93 48.48 51.01 49.52 51.12 50.57 C 50.02 50.44 48.91 50.38 47.78 50.38 C 39.81 50.38 32.31 53.48 26.68 59.12 C 26.29 59.51 26.29 60.14 26.68 60.53 C 27.07 60.92 27.7 60.92 28.09 60.53 C 33.35 55.27 40.34 52.38 47.78 52.38 C 52.08 52.38 56.16 53.36 59.79 55.1 C 59.8 55.11 59.8 55.11 59.8 55.11 C 65.55 57.87 70.22 62.56 72.95 68.33 C 72.96 68.35 72.97 68.38 72.98 68.4 C 74.67 71.99 75.62 75.99 75.62 80.22 C 75.62 95.57 63.13 108.06 47.78 108.06 C 38.36 108.06 29.64 103.35 24.47 95.46 C 24.17 94.99 23.55 94.86 23.09 95.17 C 22.62 95.47 22.49 96.09 22.8 96.55 C 28.34 105.01 37.68 110.06 47.78 110.06 C 64.24 110.06 77.62 96.68 77.62 80.22 C 77.62 79.15 77.57 78.1 77.46 77.07 C 78.56 77.19 79.67 77.27 80.77 77.27 C 90.88 77.27 100.22 72.22 105.76 63.76 C 106.06 63.29 105.93 62.68 105.47 62.37 L 105.47 62.37 Z M 72.65 50.37 L 70.04 50.37 C 69.49 50.37 69.04 49.92 69.04 49.37 C 69.04 48.81 69.49 48.37 70.04 48.37 L 72.38 48.37 C 72.36 48.07 72.34 47.78 72.34 47.48 C 72.34 46.79 72.4 46.12 72.5 45.46 L 70.04 45.46 C 69.49 45.46 69.04 45.02 69.04 44.46 C 69.04 43.91 69.49 43.46 70.04 43.46 L 72.95 43.46 C 74.43 38.66 78.47 35.2 83.22 35.2 C 85.32 35.2 87.35 35.88 89.11 37.15 C 89.55 37.47 89.65 38.1 89.33 38.55 C 89 38.99 88.38 39.09 87.93 38.77 C 86.52 37.74 84.89 37.2 83.22 37.2 C 79.55 37.2 76.4 39.79 75.04 43.46 L 82.3 43.46 C 82.85 43.46 83.3 43.91 83.3 44.46 C 83.3 45.02 82.85 45.46 82.3 45.46 L 74.51 45.46 C 74.4 46.12 74.34 46.79 74.34 47.48 C 74.34 47.78 74.35 48.07 74.38 48.37 L 82.3 48.37 C 82.85 48.37 83.3 48.81 83.3 49.37 C 83.3 49.92 82.85 50.37 82.3 50.37 L 74.7 50.37 C 75.78 54.63 79.19 57.76 83.22 57.76 C 85.02 57.76 86.75 57.14 88.23 55.96 C 88.67 55.62 89.29 55.69 89.64 56.13 C 89.98 56.56 89.91 57.19 89.48 57.53 C 87.64 58.99 85.48 59.76 83.22 59.76 C 78.1 59.76 73.81 55.75 72.65 50.37 Z" data-original="#000000" class="" style="fill: rgb(112, 122, 138);"/>
        <path d="M 77.65 80.737 C 77.65 89.093 74.221 96.753 68.75 102.225 C 63.278 107.696 55.618 111.125 47.262 111.125 C 38.907 111.125 31.246 107.696 25.774 102.225 C 20.303 96.753 16.874 89.093 16.874 80.737 C 16.874 72.381 20.303 64.721 25.774 59.249 C 31.246 53.778 38.907 50.349 47.262 50.349 C 55.618 50.349 63.278 53.778 68.75 59.249 C 74.221 64.721 77.65 72.381 77.65 80.737 Z M 68.042 59.957 C 62.697 54.611 55.413 51.349 47.262 51.349 C 39.111 51.349 31.827 54.611 26.482 59.957 C 21.136 65.302 17.874 72.586 17.874 80.737 C 17.874 88.888 21.136 96.172 26.482 101.517 C 31.827 106.863 39.111 110.125 47.262 110.125 C 55.413 110.125 62.697 106.863 68.042 101.517 C 73.388 96.172 76.65 88.888 76.65 80.737 C 76.65 72.586 73.388 65.302 68.042 59.957 Z" style="fill: none;" transform="matrix(1, -0.000062, 0.000062, 1, 0.748748, -0.359448)"/>
        <path d="m47.78 57.59c-12.48 0-22.63 10.15-22.63 22.63s10.15 22.63 22.63 22.63 22.63-10.15 22.63-22.63-10.15-22.63-22.63-22.63zm0 21.63c3.44 0 6.24 2.79 6.24 6.23 0 2.98-2.1 5.47-4.89 6.09v3.44c0 .55-.44 1-1 1-.55 0-1-.45-1-1v-3.33c-3.13-.32-5.59-2.98-5.59-6.2 0-.55.45-1 1-1 .56 0 1 .45 1 1 0 2.34 1.9 4.24 4.24 4.24s4.24-1.9 4.24-4.24c0-2.33-1.9-4.23-4.24-4.23-3.44 0-6.24-2.8-6.24-6.24 0-3.22 2.46-5.87 5.59-6.2v-3.32c0-.55.45-1 1-1 .56 0 1 .45 1 1v3.44c2.79.62 4.89 3.11 4.89 6.08 0 .56-.45 1-1 1-.56 0-1-.44-1-1 0-2.33-1.9-4.23-4.24-4.23s-4.24 1.9-4.24 4.23c0 2.34 1.9 4.24 4.24 4.24z" data-original="#000000" class="" style="fill: rgb(174, 180, 188);"/>
        <path d="m16.153 65h10.962c.552 0 1-.447 1-1s-.448-1-1-1h-10.962c-.552 0-1 .447-1 1s.448 1 1 1z" data-original="#000000" class="" style="fill: rgb(174, 180, 188);"/>
        <path d="m11.977 72.965h9.635c.552 0 1-.447 1-1s-.448-1-1-1h-9.635c-.552 0-1 .447-1 1s.447 1 1 1z" data-original="#000000" class="" style="fill: rgb(174, 180, 188);"/>
        <path d="m22.612 85.757c0-.553-.448-1-1-1h-9.635c-.552 0-1 .447-1 1s.448 1 1 1h9.635c.552 0 1-.447 1-1z" data-original="#000000" class="" style="fill: rgb(174, 180, 188);"/>
        <path d="m20.612 79.22c0-.553-.448-1-1-1h-12.177c-.552 0-1 .447-1 1s.448 1 1 1h12.177c.552 0 1-.448 1-1z" data-original="#000000" class="" style="fill: rgb(174, 180, 188);"/>
        <path d="m26.612 92.294c0-.553-.448-1-1-1h-11.635c-.552 0-1 .447-1 1s.448 1 1 1h11.635c.552 0 1-.447 1-1z" data-original="#000000" class="" style="fill: rgb(174, 180, 188);"/>
        <path d="m100.439 31.21c0 .553.448 1 1 1h10.962c.552 0 1-.447 1-1s-.448-1-1-1h-10.962c-.552 0-1 .447-1 1z" data-original="#000000" class="" style="fill: rgb(112, 122, 138);"/>
        <path d="m105.942 39.174c0 .553.448 1 1 1h9.635c.552 0 1-.447 1-1s-.448-1-1-1h-9.635c-.552 0-1 .447-1 1z" data-original="#000000" class="" style="fill: rgb(112, 122, 138);"/>
        <path d="m116.578 51.967h-9.635c-.552 0-1 .447-1 1s.448 1 1 1h9.635c.552 0 1-.447 1-1s-.448-1-1-1z" data-original="#000000" class="" style="fill: rgb(112, 122, 138);"/>
        <path d="m121.119 45.43h-12.176c-.552 0-1 .447-1 1s.448 1 1 1h12.176c.552 0 1-.447 1-1s-.448-1-1-1z" data-original="#000000" class="" style="fill: rgb(112, 122, 138);"/>
        <path d="m114.578 58.504h-11.635c-.552 0-1 .447-1 1s.448 1 1 1h11.635c.552 0 1-.447 1-1s-.448-1-1-1z" data-original="#000000" class="" style="fill: rgb(112, 122, 138);"/>
      </g>
    </g>
  </g>
  <path style="fill: none; stroke-width: 3px; stroke-linecap: round; stroke: rgb(174, 180, 188);" d="M 40.77 51.663 C 68.077 47.787 85.047 75.296 73.282 94.642 C 61.517 113.988 36.379 114.379 23.986 96.114 C 21.955 93.121 20.09 90.312 18.801 80.779" transform="matrix(0.842163, -0.539224, 0.539224, 0.842163, -35.783447, 38.537018)"/>
</svg>