<?xml version="1.0" encoding="utf-8"?>
<svg viewBox="0 0 64 64" style="enable-background:new 0 0 512 512" xmlns="http://www.w3.org/2000/svg">
  <g>
    <g xmlns="http://www.w3.org/2000/svg" fill="rgb(0,0,0)">
      <path d="m54 57h-11.85c-1.29 0-1.29-2 0-2h11.85c.55 0 1-.45 1-1v-11.85c0-1.29 2-1.29 2 0v11.85c0 1.66-1.34 3-3 3z" data-original="#000000" style="fill: rgb(240, 185, 11);"/>
      <path d="m21.85 57h-11.85c-1.66 0-3-1.34-3-3v-11.85c0-1.29 2-1.29 2 0v11.85c0 .55.45 1 1 1h11.85c1.29 0 1.29 2 0 2z" data-original="#000000" style="fill: rgb(240, 185, 11);"/>
      <path d="m21 26.66c6.99-5.4 17.44-3.42 22 4.13v5.75c-.71-4.67-4.02-8.65-8.45-10.24-4.62-1.66-9.91-.51-13.43 2.9l-.02.02-.1.1z" data-original="#000000" style="fill: rgb(117, 128, 142);"/>
      <path d="m33.75 35.06c-1.89-1.96-5.11-2.01-7.07-.109-1.86 1.84-3.58 3.81-5.14 5.91-.28-.841-.45-1.721-.51-2.601 1.32-1.67 2.74-3.26 4.26-4.75 2.74-2.649 7.24-2.58 9.9.16 2.649 2.74 2.579 7.24-.16 9.9-1.5 1.5-2.89 3.12-4.15 4.83-.73-.07-1.46-.221-2.16-.44 1.48-2.08 3.12-4.02 4.919-5.83 1.961-1.89 2.011-5.11.111-7.07z" data-original="#000000" style="fill: rgb(117, 128, 142);"/>
      <path d="m29.46 37.82c-2.11 2.12-4.04 4.41-5.77 6.85-.46-.53-.87-1.11-1.22-1.72 1.69-2.33 3.56-4.53 5.6-6.57 2.78-2.68 6.95 1.62 4.18 4.32-1.99 1.99-3.81 4.16-5.43 6.46-.59-.311-1.15-.68-1.67-1.101 1.7-2.42 3.61-4.699 5.71-6.8.92-.899-.47-2.339-1.4-1.439z" data-original="#000000" style="fill: rgb(117, 128, 142);"/>
      <path d="m42.19 21.32c-5.5-3.83-12.49-4.82-18.831-2.65.93-1.189 2.1-2.17 3.43-2.88 4.39-.65 8.86-.021 12.89 1.81 0 0 .011 0 .011.011 1.08 1.059 1.93 2.319 2.5 3.709z" data-original="#000000" style="fill: rgb(117, 128, 142);"/>
      <path d="m36.62 32.28c-3.41-3.53-9.2-3.62-12.72-.2-1.01.979-1.98 2.01-2.9 3.08v-2.98l1.51-1.54c.01-.01.01-.01.02-.02 3.47-3.351 8.88-4.03 13.07-1.64 4.53 2.569 6.631 8.14 4.98 13.09-.561 1.649-1.51 3.149-2.771 4.37l-.02.02-.75.78c-1.13.58-2.35.96-3.61 1.13.931-1.19 1.92-2.311 2.99-3.37 3.531-3.41 3.621-9.2.201-12.72z" data-original="#000000" style="fill: rgb(117, 128, 142);"/>
      <path d="m43 27.4c-5.51-6.351-14.82-7.721-21.92-3.23.11-.91.33-1.81.66-2.66 7.01-3.47 15.43-2.279 21.22 2.98l.04.99z" data-original="#000000" style="fill: rgb(117, 128, 142);"/>
      <path d="m10 9c-.55 0-1 .45-1 1v11.85c0 1.29-2 1.29-2 0v-11.85c0-1.66 1.34-3 3-3h11.85c1.29 0 1.29 2 0 2z" data-original="#000000" style="fill: rgb(240, 185, 11);"/>
      <path d="m54 9h-11.85c-1.29 0-1.29-2 0-2h11.85c1.66 0 3 1.34 3 3v11.85c0 1.29-2 1.29-2 0v-11.85c0-.55-.45-1-1-1z" data-original="#000000" style="fill: rgb(240, 185, 11);"/>
    </g>
  </g>
</svg>