<?xml version="1.0" encoding="utf-8"?>
<svg viewBox="0 0 64 64" style="enable-background:new 0 0 512 512" xmlns="http://www.w3.org/2000/svg">
  <g>
    <g xmlns="http://www.w3.org/2000/svg" id="Icons">
      <g>
        <path d="m55.662 28c-.176-1.049-.428-2.072-.735-3.07-1.506.681-3.17 1.07-4.927 1.07-1.178 0-2.315-.178-3.391-.496.887 1.988 1.391 4.182 1.391 6.496 0 8.822-7.178 16-16 16s-16-7.178-16-16 7.178-16 16-16c2.314 0 4.508.504 6.496 1.391-.318-1.076-.496-2.213-.496-3.391 0-1.757.389-3.421 1.07-4.926-.998-.308-2.021-.56-3.07-.736v-4.338h-8v4.338c-3.646.612-7.01 2.045-9.901 4.104l-3.069-3.069-5.657 5.657 3.069 3.069c-2.059 2.891-3.492 6.256-4.104 9.901h-4.338v8h4.338c.612 3.646 2.045 7.01 4.104 9.901l-3.069 3.069 5.657 5.657 3.069-3.069c2.891 2.059 6.256 3.492 9.901 4.104v4.338h8v-4.338c3.646-.612 7.01-2.045 9.901-4.104l3.069 3.069 5.657-5.657-3.069-3.069c2.059-2.891 3.492-6.256 4.104-9.901h4.338v-8z" fill="#fab400" data-original="#fab400" class=""/>
      </g>
      <g>
        <path d="m8.338 28h4c.612-3.646 2.045-7.01 4.104-9.902l-3.069-3.069 3.657-3.657-2-2-5.657 5.657 3.069 3.069c-2.059 2.892-3.492 6.256-4.104 9.902z" fill="#dc9600" data-original="#dc9600" class=""/>
      </g>
      <g>
        <path d="m4 28h4v8h-4z" fill="#dc9600" data-original="#dc9600" class=""/>
      </g>
      <g>
        <path d="m13.373 48.971 3.069-3.069c-2.059-2.892-3.492-6.256-4.104-9.902h-4c.612 3.646 2.045 7.01 4.104 9.901l-3.069 3.069 5.657 5.657 2-2z" fill="#dc9600" data-original="#dc9600" class=""/>
      </g>
      <g>
        <path d="m50 24c-5.523 0-10-4.477-10-10 0-5.523 4.477-10 10-10 5.523 0 10 4.477 10 10 0 5.523-4.477 10-10 10z" data-original="#64c8f0" style="fill: rgb(117, 128, 142);"/>
      </g>
      <g>
        <path d="m42 14c0-5.185 3.947-9.448 9-9.95-.329-.032-.662-.05-1-.05-5.523 0-10 4.477-10 10s4.477 10 10 10c.338 0 .671-.018 1-.05-5.053-.502-9-4.765-9-9.95z" data-original="#46aad2" style="fill: rgb(117, 128, 142);"/>
      </g>
      <g>
        <path d="m57 15v-2h-2.12c-.13-.635-.366-1.232-.712-1.754l1.488-1.488-1.414-1.414-1.488 1.488c-.523-.347-1.119-.587-1.754-.718v-2.114h-2v2.114c-.635.131-1.231.371-1.754.718l-1.488-1.488-1.414 1.414 1.488 1.488c-.346.522-.582 1.119-.712 1.754h-2.12v2h2.12c.13.635.366 1.232.712 1.754l-1.488 1.488 1.414 1.414 1.488-1.488c.523.346 1.119.587 1.754.718v2.114h2v-2.114c.635-.131 1.231-.371 1.754-.718l1.488 1.488 1.414-1.414-1.488-1.488c.346-.523.582-1.119.712-1.754zm-7 2c-1.654 0-3-1.346-3-3s1.346-3 3-3 3 1.346 3 3-1.346 3-3 3z" fill="#f0f0f0" data-original="#f0f0f0"/>
      </g>
      <g>
        <path d="M 32 43 C 31.062 42.922 30.423 40.869 32 41 C 36.963 41 41 36.963 41 32 C 41 29.146 39.686 26.521 37.393 24.8 L 38.594 23.2 C 41.394 25.304 43 28.511 43 32 C 43 38.065 38.065 43 32 43 Z M 25.406 40.8 C 22.606 38.696 21 35.489 21 32 C 21 25.935 25.935 21 32 21 C 32.956 21 32.956 23 32 23 C 27.038 23 23 27.037 23 32 C 23 34.854 24.314 37.479 26.607 39.2 L 25.406 40.8 Z" fill="#505050" data-original="#505050" class=""/>
      </g>
      <g>
        <path d="m32 38v8l-4-4z" fill="#505050" data-original="#505050" class=""/>
      </g>
      <g>
        <path d="m32 26v-8l4 4z" fill="#505050" data-original="#505050" class=""/>
      </g>
      <g>
        <path d="m32 36c-2.209 0-4-1.791-4-4 0-2.209 1.791-4 4-4 2.209 0 4 1.791 4 4 0 2.209-1.791 4-4 4z" data-original="#3cc8b4" style="fill: rgb(117, 128, 142);"/>
      </g>
    </g>
  </g>
</svg>